<svg xmlns="http://www.w3.org/2000/svg"  viewBox="0 0 50 50" width="512px" height="512px"><path fill="#fa5252" d="M 8 3 A 1.0001 1.0001 0 0 0 7 4 L 7 46 A 1.0001 1.0001 0 0 0 8 47 L 16 47 A 1.0001 1.0001 0 0 0 17 46 L 17 29 L 33 29 L 33 46 A 1.0001 1.0001 0 0 0 34 47 L 42 47 A 1.0001 1.0001 0 0 0 43 46 L 43 4 A 1.0001 1.0001 0 0 0 42 3 L 34 3 A 1.0001 1.0001 0 0 0 33 4 L 33 20 L 17 20 L 17 4 A 1.0001 1.0001 0 0 0 16 3 L 8 3 z M 9 5 L 15 5 L 15 21 A 1.0001 1.0001 0 0 0 16 22 L 34 22 A 1.0001 1.0001 0 0 0 35 21 L 35 5 L 41 5 L 41 45 L 35 45 L 35 28 A 1.0001 1.0001 0 0 0 34 27 L 16 27 A 1.0001 1.0001 0 0 0 15 28 L 15 45 L 9 45 L 9 5 z"/></svg>